<?xml version="1.0" encoding="UTF-8"?>
<svg id="Capa_1" xmlns="http://www.w3.org/2000/svg" version="1.1" viewBox="0 0 724 165">
  <!-- Generator: Adobe Illustrator 30.2.1, SVG Export Plug-In . SVG Version: 2.1.1 Build 1)  -->
  <defs>
    <style>
      .st0 {
        fill: #1b2c4d;
      }
    </style>
  </defs>
  <path class="st0" d="M724,130v1c-10.08-.76-18.89.16-29.82-.56-.75-.21-.76-.66-.02-.86,1.61-.14,2.8-.46,4.21-.88,5.25-1.57,3.97-8.46,3.97-13.66l.02-26.13c0-6.82-.54-12.97-7.99-15.62-8.45-3.01-16.83.04-23.66,5.35-3.73,2.9-3.09,7.83-3.1,12.26l-.04,29.26c0,3.73.34,7.12,3.8,8.52,2.46,1,5.8,1.23,5.44,2.08h-15.8s-14.24-.1-14.24-.1c-.68.05-.6-.35.08-.69,1.81-.35,3.19-.7,4.76-1.34,3.99-1.61,4.41-5.37,4.42-9.59l.09-37.16c0-4.03.26-8.57-3.74-9.53-1.96-.47-7.77-.73-5.87-1.71,1.33-.69,14.76-3.87,18.79-5.1s-.79,11.94,2.78,11.59c2.36-.23,7.46-7.17,18.28-10.56,8.24-2.59,17.22-1.75,23.27,4.73,3.77,4.04,5.1,11.11,5.07,16.72l-.12,27.01c-.02,5.53-1.21,12.26,4.64,14.02,1.76.53,3.31.75,4.78.95Z"/>
  <path class="st0" d="M321.93,129.39c11.89,1.38-17.35,1.32-14.95,1.38-3.83-.09-7-1.59-9.41-4.37l-12.98-14.98-8.71-9.31c-.87-.93-7.36-7.65-7.94-4.25-.42,2.47-.36,4.66-.37,7.09l-.07,14.2c-.02,3.89.15,8.8,4.55,9.91l4.79,1.21c-.15.8-.87.72-1.76.68-10.24-.42-19.86-.27-29.84-.13-.31-2.82,8.67.06,9.83-6,.15-.8.68-21.36.68-23.99l-.03-40.73c0-3.02.06-16.9-.09-17.73-.75-4.3-5.54-3.87-8.65-4.58-.79-.18-.57-1.14.26-1.28,8.77-1.46,11.29-2.78,19.71-4.38.46,1.12.64,2.41.65,3.92l.05,39.91-.22,14.09c-.03,2.07,0,3.97.95,5.92,1.58,3.27,13.6-7.81,15.2-9.4l8.07-8.06c2.25-2.25,5.25-6.26,1.7-8.68-1.6-1.09-3.12-1.45-5.07-2.19.1-.62.74-.24,1.51-.25l20.4-.16c.82,0,1.52-.28,1.63.44-12.19,4.85-18.17,13.55-27.79,21.68-.92.77-1.91,1.55-2.14,2.72-.27,1.38,6.42,7.71,8.7,10.28l8.92,10.06c3.66,4.12,7.49,7.79,11.37,11.69,3.01,3.03,6.68,4.76,11.04,5.26Z"/>
  <path class="st0" d="M394.48,35.6c-1.07-.21-1.27-.75-.46-1.13,8.51-.13,16.55-.35,25,.65,4.38.52-5.42,1.08-8.82,9.33l-4.09,9.94-21.28,48.64-8.1,17.92c-2.33,5.16-3.86,14.9-7.63,11.15-1.7-1.68-3.49-7.31-5.14-10.85l-8.58-18.44-8.36-17.59-8.5-17.55-11.45-23.46c-2.67-5.47-5.15-7.44-10.93-8.68-.79-.17-.84-1.03-.08-1.03l21.94-.17c4.73-.04,9.05-.12,13.75.39.53.17.53.4,0,.55-4.04.98-10.37,2.18-9.64,7.28.27,1.86.86,3.54,1.67,5.26l10.91,23.27,6.37,13.61c1.56,3.32,13.06,28.89,13.53,29.12,2.03,1,3.6-3.18,4.72-5.74l9.1-20.86,6.99-16.03,7.71-19.37c.92-2.31,1.6-4.59,1.83-7.05.56-6-4.47-8.24-10.47-9.16Z"/>
  <path class="st0" d="M509.41,122.12c-7.95,12.17-23.85,11.92-36.13,9.29-4.42-.95-8.77-1.28-9.08-5.43-.28-3.74-.04-7.18.36-10.9.24-2.24,1.99,3.8,4.89,7.39,5.76,7.11,17.13,9.66,25.05,5.26,4.31-2.4,6.7-6.64,6.43-11.58-.67-12.47-17.1-11.7-30.03-21.19-4.26-3.13-6.76-8.11-6.16-13.49.59-5.26,3.81-9.63,8.44-12.12,10.29-5.53,19.84-4.56,30.88-2.26,1.92.4,2.93,1.87,3.07,3.8.04.57.41,12.34-.84,10.96-1.46-5.8-3.96-10.55-9.92-12.51-5.17-1.71-10.63-1.73-15.8-.01-6.1,2.03-7,9.15-5.25,14.07,3.33,9.38,28.16,11.49,34.43,22.73,2.63,4.72,2.91,10.99-.36,15.99Z"/>
  <path class="st0" d="M194.68,107.13c3.04,14.67,16.93,19.79,30.86,17.68,4.17-.63,7.84-1.75,11.6-3.05.21.14.28.52.04.86-4.13,5.85-14.25,9.93-21.3,10.12-8.17.22-16.21-2.13-22.7-7.04-14.41-10.9-16.46-33.7-4.19-48.8,6.89-8.47,21.1-12.1,31.85-11.54,4.51.23,8.66,1.16,12.99,1.94,1.88.34,2.99,1.72,3.01,3.63l.11,11.22c0,.76-.81.75-.93-.03-1.05-6.42-5.41-11.15-11.67-12.67-13.75-3.35-27.11,2.52-29.73,16.32-1.34,7.09-1.4,14.27.07,21.35Z"/>
  <path class="st0" d="M522.87,129.79c2.3-.38,3.65-.72,5.25-1.49,3.33-1.59,3.34-5.49,3.31-9.16l-.18-20.15.19-18.2c.04-3.52-.06-6.96-3.36-8.07-1.13-.38-9.03-1.58-5.08-2.29,4.08-.74,7.72-1.61,11.61-2.66l7.69-2.07c.43,4.02.43,7.95.42,12.28l-.07,37.06c0,5.25-.98,12.09,4.47,13.97-.12-.04,8.26,2.08,4.01,1.95-11.06-.34-17.56.09-28.03-.59-.66-.2-.83-.43-.23-.57Z"/>
  <path class="st0" d="M425.54,131.03c-1.2,0-1.44-.69-.67-1.21,1.76-.35,3.09-.71,4.61-1.25,4.15-1.48,4.64-5.14,4.64-9.45l-.03-35.19c0-4.24,1.26-10.68-3.7-11.39l-5.34-.76c-.69-.1-.6-1.1.13-1.23,8.26-1.4,11.93-3.07,19.6-5.04-.02,7.88.74,18.18.74,25.57v28.05c0,3.94-.09,8.57,3.97,9.42,1.55.32,2.9.4,4.69.55,1.13.1,1.13,1.73.04,1.74l-28.67.19Z"/>
  <circle class="st0" cx="536.38" cy="42.03" r="7.52"/>
  <path class="st0" d="M440.12,49.34c-5.21.71-9.22-4.01-8.25-8.76.86-4.25,5.24-6.89,9.34-5.7,3.49,1.02,5.29,4.35,5.13,7.48s-2.23,6.43-6.22,6.98Z"/>
  <g>
    <path class="st0" d="M632.06,119.13c-15.35,18.41-46.31,19.13-63.26,3.02-6.62-6.29-10.29-15.02-10.4-24.19-.06-4.8,1.48-9.13,3.47-13.31,7.14-14.99,22.11-20.71,38.02-21.19,13.56,1.08,25.89,5.24,33.67,16.84,8.74,13.03,7.18,26.29-1.5,38.83ZM626.79,106.78c4.6-15-4.2-29.23-17.88-33.58-8.48-2.7-17.26-1.36-25.06,2.5-14.33,7.08-18.18,24.09-10.35,36.83,2.8,4.56,6.78,8.18,11.66,10.45,15.9,7.41,36.44.71,41.63-16.19Z"/>
    <path class="st0" d="M621.5,93.24c.76,3.83.68,7.35-.14,11.16-4.57,15.24-22.05,18.76-35.08,12.41-9.66-4.71-14.43-20.53-6.4-29.99,6.25-7.36,14.5-9.79,24.22-8.93.92,0,1.65.11,1.63.83-1.97,1.18-3.75,2.16-4.94,4.1-2.66,4.31-1.97,10.07,1.88,13.44,4.36,3.82,13.66,4.07,17.03-1.72.45-.56.58-1.35,1.79-1.3Z"/>
  </g>
  <g>
    <path class="st0" d="M41.23,123.84c13.39,9.14,36.54,8.22,48.15-3.48,2.05-2.07,3.82-4.07,5.6-6.51.32-.76.79-.73.78.04l.19,9.26c.04,2.18-1.08,3.95-3.21,4.62-6.87,2.16-13.64,4.13-20.94,4.77-16.53,1.44-29.06.04-43.39-8.07-9.24-5.23-17.19-13.73-20.83-23.8-5.32-14.68-6.28-20.72-.36-35.72s17.64-25.85,33.21-30.26c17.6-4.99,28.32-3.56,45.78-.66,4.75.79,8.52.61,8.84,4.82.07.89.81,17.07-1.72,11.37-2.28-5.15-5.49-8.85-10.34-11.4-10.29-5.42-23.46-6.06-34.45-2.54-8.65,2.77-15.44,8.62-20.22,16.17-2.79,4.4-5.07,8.76-6.15,13.96-4.42,21.36.11,44.48,19.08,57.42Z"/>
    <path class="st0" d="M107.45,130.16c2.09-.52,3.09-.75,4.4-1.18,5.92-1.91,4.44-9.16,4.44-14.99v-60.97c0-5.63,1.5-13.1-4.09-14.34-.22-.05-7.94-1.07-4.24-1.78,6.02-1.15,16.39-4.34,19.06-4.66.68-.08.71,1.02.71,1.87l-.04,80.87c0,3.46-.28,6.49.42,9.72.86,3.99,3.98,4.33,8.07,4.47,1.16.04,1.07,1.73,0,1.72l-15.16-.15-12.2-.13c-.88.12-1.78.26-1.37-.44Z"/>
    <path class="st0" d="M143.57,129.35l4.89-.73c4.04-.6,4.05-6.08,4.02-9.48l-.14-19.14.16-19.18c.03-3.51-.23-6.77-3.47-8.06-1.22-.49-8.13-1.8-4.95-2.35,6.79-1.17,12.96-2.83,19.2-4.66.58,4.63.43,9.26.43,14.27l-.04,37.03c0,2.88.18,5.57.98,8.22,1.99,6.62,12.43,2.02,8.58,5.44-4.96-.29-9.43.03-14.22.06l-15.06.1c-.93,0-1.51-1.36-.37-1.53Z"/>
    <circle class="st0" cx="157.62" cy="42.14" r="7.36"/>
  </g>
</svg>